<svg width="483" height="415" viewBox="0 0 483 415" fill="none" xmlns="http://www.w3.org/2000/svg">
    <path
        d="M0.989418 211.006L61.1955 210.709L121.402 210.602L241.814 210.411L362.226 210.602L422.432 210.709L482.638 211.006L422.432 211.291L362.226 211.398L241.814 211.601L121.402 211.398L61.1955 211.291L0.989418 211.006Z"
        fill="#EBEBEB" />
    <path
        d="M0.989418 252.126L61.1955 251.841L121.402 251.734L241.814 251.532L362.226 251.734L422.432 251.841L482.638 252.126L422.432 252.424L362.226 252.519L241.814 252.721L121.402 252.519L61.1955 252.412L0.989418 252.126Z"
        fill="#EBEBEB" />
    <path
        d="M0.989418 169.909L61.1955 169.624L121.402 169.517L241.814 169.315L362.226 169.517L422.432 169.624L482.638 169.909L422.432 170.207L362.226 170.302L241.814 170.504L121.402 170.302L61.1955 170.207L0.989418 169.909Z"
        fill="#EBEBEB" />
    <path
        d="M0.989418 293.247L61.1955 292.961L121.402 292.854L241.814 292.664L362.226 292.854L422.432 292.961L482.638 293.247L422.432 293.544L362.226 293.651L241.814 293.841L121.402 293.651L61.1955 293.544L0.989418 293.247Z"
        fill="#EBEBEB" />
    <path
        d="M0.989418 334.379L61.1955 334.094L121.402 333.987L241.814 333.785L362.226 333.987L422.432 334.082L482.638 334.379L422.432 334.664L362.226 334.772L241.814 334.974L121.402 334.772L61.1955 334.664L0.989418 334.379Z"
        fill="#EBEBEB" />
    <path
        d="M0.989418 375.499L61.1955 375.214L121.402 375.107L241.814 374.905L362.226 375.107L422.432 375.214L482.638 375.499L422.432 375.797L362.226 375.904L241.814 376.094L121.402 375.892L61.1955 375.797L0.989418 375.499Z"
        fill="#EBEBEB" />
    <path
        d="M282.934 128.266L283.231 164.023L283.339 199.78L283.529 271.295L283.339 342.822L283.231 378.579L282.934 414.337L282.649 378.579L282.542 342.822L282.34 271.295L282.542 199.78L282.649 164.023L282.934 128.266Z"
        fill="#EBEBEB" />
    <path
        d="M241.814 128.266L242.099 164.023L242.206 199.78L242.408 271.295L242.206 342.822L242.111 378.579L241.814 414.337L241.516 378.579L241.421 342.822L241.219 271.295L241.421 199.78L241.528 164.023L241.814 128.266Z"
        fill="#EBEBEB" />
    <path
        d="M200.693 128.266L200.979 164.023L201.086 199.78L201.276 271.295L201.086 342.822L200.979 378.579L200.693 414.337L200.396 378.579L200.289 342.822L200.099 271.295L200.289 199.78L200.396 164.023L200.693 128.266Z"
        fill="#EBEBEB" />
    <path
        d="M159.561 128.266L159.846 164.023L159.953 199.78L160.156 271.295L159.953 342.822L159.858 378.579L159.561 414.337L159.276 378.579L159.169 342.822L158.966 271.295L159.169 199.78L159.276 164.023L159.561 128.266Z"
        fill="#EBEBEB" />
    <path
        d="M406.319 128.266L406.605 164.023L406.712 199.78L406.914 271.295L406.712 342.822L406.605 378.579L406.319 414.337L406.022 378.579L405.915 342.822L405.725 271.295L405.927 199.78L406.022 164.023L406.319 128.266Z"
        fill="#EBEBEB" />
    <path
        d="M365.187 128.266L365.484 164.023L365.579 199.78L365.781 271.295L365.579 342.822L365.484 378.579L365.187 414.337L364.902 378.579L364.794 342.822L364.592 271.295L364.794 199.78L364.902 164.023L365.187 128.266Z"
        fill="#EBEBEB" />
    <path
        d="M324.066 128.266L324.352 164.023L324.459 199.78L324.661 271.295L324.459 342.822L324.352 378.579L324.066 414.337L323.769 378.579L323.674 342.822L323.472 271.295L323.674 199.78L323.781 164.023L324.066 128.266Z"
        fill="#EBEBEB" />
    <path
        d="M447.44 128.266L447.725 164.023L447.832 199.78L448.034 271.295L447.832 342.822L447.737 378.579L447.44 414.337L447.154 378.579L447.047 342.822L446.845 271.295L447.047 199.78L447.154 164.023L447.44 128.266Z"
        fill="#EBEBEB" />
    <path
        d="M406.319 128.266L406.605 164.023L406.712 199.78L406.914 271.295L406.712 342.822L406.605 378.579L406.319 414.337L406.022 378.579L405.915 342.822L405.725 271.295L405.927 199.78L406.022 164.023L406.319 128.266Z"
        fill="#EBEBEB" />
    <path
        d="M118.441 128.266L118.726 164.023L118.833 199.78L119.035 271.295L118.833 342.822L118.726 378.579L118.441 414.337L118.143 378.579L118.036 342.822L117.846 271.295L118.048 199.78L118.143 164.023L118.441 128.266Z"
        fill="#EBEBEB" />
    <path
        d="M77.3083 128.266L77.6056 164.023L77.7008 199.78L77.9029 271.295L77.7126 342.822L77.6056 378.579L77.3083 414.337L77.0229 378.579L76.9159 342.822L76.7138 271.295L76.9159 199.78L77.0229 164.023L77.3083 128.266Z"
        fill="#EBEBEB" />
    <path
        d="M36.1879 128.266L36.4733 164.023L36.5803 199.78L36.7825 271.295L36.5803 342.822L36.4733 378.579L36.1879 414.337L35.8906 378.579L35.7955 342.822L35.5934 271.295L35.7955 199.78L35.8906 164.023L36.1879 128.266Z"
        fill="#EBEBEB" />
    <path d="M476.633 0.44519H286.371V15.0835H476.633V0.44519Z" fill="#EBEBEB" />
    <path
        d="M453.409 150.55C451.699 150.466 450.026 150.027 448.494 149.261C446.963 148.495 445.608 147.42 444.514 146.103C439.389 140.514 436.666 130.751 437.379 120.643C437.879 113.794 441.066 105.018 444.146 96.5276C447.226 88.0372 450.21 79.7845 450.282 74.148L451.138 7.55627H455.217V9.11404H452.696L451.863 74.148C451.792 80.0937 448.795 88.2988 445.632 97.0389C442.588 105.422 439.449 114.103 438.961 120.738C438.248 130.43 440.816 139.765 445.668 145.021C446.619 146.18 447.8 147.129 449.137 147.809C450.473 148.488 451.936 148.883 453.433 148.969L453.409 150.55Z"
        fill="#EBEBEB" />
    <path
        d="M457.048 149.944C455.903 150.351 454.696 150.556 453.48 150.55V148.992C454.978 148.944 456.45 148.587 457.803 147.942C459.155 147.297 460.36 146.38 461.341 145.247C466.323 140.086 469.13 130.846 468.666 121.143C468.345 114.496 465.431 105.743 462.601 97.2768C459.652 88.4534 456.87 80.1294 456.953 74.2313L457.785 9.1973H455.264V7.63953H459.331L458.487 74.2313C458.415 79.8559 461.15 88.061 464.052 96.7536C466.953 105.446 469.867 114.186 470.2 121.036C470.675 131.167 467.703 140.847 462.435 146.305C460.945 147.919 459.101 149.165 457.048 149.944Z"
        fill="#EBEBEB" />
    <path
        d="M453.409 150.55C452.57 150.501 451.751 150.279 451.002 149.899C450.253 149.518 449.591 148.987 449.057 148.338C444.705 143.701 442.196 132.606 442.826 120.727C443.171 113.925 445.287 105.137 447.333 96.6465C449.378 88.156 451.388 79.844 451.459 74.1599L452.303 7.56812H455.24V9.12588H453.873L453.04 74.1599C452.957 80.0104 450.971 88.2631 448.878 96.9913C446.845 105.41 444.752 114.127 444.395 120.774C443.813 132.071 446.203 142.963 450.21 147.232C450.605 147.726 451.097 148.133 451.655 148.43C452.214 148.726 452.827 148.906 453.457 148.957L453.409 150.55Z"
        fill="#EBEBEB" />
    <path
        d="M455.133 150.265C454.579 150.459 453.996 150.555 453.409 150.55H452.636L454.456 7.61572H458.166L457.309 74.2075C457.238 79.8916 458.998 88.0966 460.877 96.8011C462.756 105.506 464.599 114.174 464.777 121C465.098 132.891 462.316 143.915 457.845 148.445C457.088 149.246 456.161 149.868 455.133 150.265ZM454.206 148.909C455.169 148.637 456.038 148.101 456.715 147.363C460.829 143.178 463.505 132.368 463.196 121.048C463.017 114.377 461.15 105.589 459.331 97.146C457.452 88.3582 455.68 80.0699 455.764 74.2194L456.584 9.18539H456.001L454.206 148.909Z"
        fill="#EBEBEB" />
    <path d="M448.581 4.48823L447.915 57.0482L461.293 57.2265L461.971 4.35742L448.581 4.48823Z"
        fill="#A6A6A6" />
    <path d="M384.332 41.9937H378.684V113.39H384.332V41.9937Z" fill="#EBEBEB" />
    <path
        d="M396.794 110.274H366.21L364.652 152.952H398.364L396.794 110.274ZM375.092 148.005H371.917V116.374H375.092V148.005ZM383.083 148.005H379.92V116.374H383.083V148.005ZM391.074 148.005H387.911V116.374H391.074V148.005Z"
        fill="#EBEBEB" />
    <path d="M375.77 4.48823L375.092 57.0482L388.482 57.2265L389.16 4.35742L375.77 4.48823Z"
        fill="#A6A6A6" />
    <path
        d="M310.926 75.575V41.3754H302.032V145.77H344.936V75.6107L310.926 75.575ZM336.315 87.8707C335.808 87.8707 335.314 87.7204 334.893 87.439C334.472 87.1575 334.145 86.7575 333.951 86.2897C333.758 85.8218 333.708 85.3071 333.808 84.8109C333.908 84.3146 334.152 83.8591 334.511 83.502C334.87 83.1449 335.326 82.9024 335.823 82.8051C336.32 82.7078 336.834 82.7601 337.301 82.9554C337.768 83.1508 338.167 83.4803 338.446 83.9023C338.726 84.3243 338.874 84.8198 338.871 85.3259C338.871 85.6611 338.805 85.993 338.676 86.3025C338.548 86.612 338.359 86.8931 338.122 87.1296C337.884 87.366 337.602 87.5532 337.292 87.6804C336.982 87.8076 336.65 87.8722 336.315 87.8707Z"
        fill="#EBEBEB" />
    <path d="M300.783 4.48823L300.105 57.0482L313.495 57.2265L314.173 4.35742L300.783 4.48823Z"
        fill="#A6A6A6" />
    <path d="M13.2138 145.532H206.663L212.882 0.44519H6.99457L13.2138 145.532Z" fill="#EBEBEB" />
    <path
        d="M105.824 132.214H27.5904L22.5009 14.4889H105.824V132.214ZM28.732 131.024H104.635V15.678H23.7733L28.732 131.024Z"
        fill="#DBDBDB" />
    <path
        d="M98.7723 93.305H90.6386V50.7695H98.7723V93.305ZM91.8277 92.1159H97.5832V51.9587H91.8277V92.1159Z"
        fill="#DBDBDB" />
    <path
        d="M192.286 132.214H114.053V14.4889H197.376L192.286 132.214ZM115.242 131.024H191.145L196.139 15.678H115.278L115.242 131.024Z"
        fill="#DBDBDB" />
    <path
        d="M129.238 93.305H121.104V50.7695H129.238V93.305ZM122.293 92.1159H128.049V51.9587H122.293V92.1159Z"
        fill="#DBDBDB" />
</svg>