<svg width="57" height="44" viewBox="0 0 57 44" fill="none" xmlns="http://www.w3.org/2000/svg">
<path d="M56.9843 23.7969C56.9195 22.7784 56.9843 21.7599 56.9843 20.7414C56.9843 19.341 56.9195 18.0042 56.9843 16.6037C57.049 12.1477 55.1065 8.45565 51.5453 5.90938C43.6457 0.243918 34.7749 -1.09288 25.3214 0.81683C20.0766 1.899 15.5441 4.31796 12.1123 8.58296C10.4936 10.4927 9.91082 12.657 10.4936 15.1396C10.7526 16.0308 10.8821 16.922 11.0763 17.8132C11.3353 19.0227 11.0116 20.1049 9.97557 20.8051C9.13381 21.378 8.22731 21.8872 7.25606 22.2692C5.70205 22.9694 4.01854 23.4787 2.46453 24.1789C0.651527 24.9428 -0.0607265 26.3432 0.00402377 28.2529C0.0687741 29.8443 0.263025 31.4358 0.133524 33.0272C0.00402377 34.7459 0.845778 35.9554 2.14078 36.7829C4.47179 38.2471 6.73805 39.7748 9.19857 40.7933C17.3571 44.1035 25.9689 44.74 34.6454 43.2123C41.5737 42.0028 47.9192 39.2656 52.8403 34.0457C55.5598 31.1175 57.1785 27.8073 56.9843 23.7969ZM52.8403 22.6511C49.7323 28.4439 44.617 31.8177 38.4657 33.7274C35.4224 34.6823 32.1849 35.1279 29.0122 35.7008C27.3934 35.9554 25.7099 36.2737 24.3501 36.2737C18.6521 36.401 13.3426 35.3188 8.48631 33.1545C6.73805 32.4543 5.2488 31.2448 3.69479 30.099C3.17679 29.717 2.85304 29.0168 2.59404 28.3802C2.20553 27.68 2.39978 27.0434 3.11204 26.8525C4.21279 26.2796 5.3783 25.7067 6.5438 25.1337C7.90356 24.4972 9.32807 23.9879 10.6231 23.224C13.0188 21.8236 13.7958 19.9139 13.2778 17.1766C13.1483 16.4764 13.0188 15.7762 12.8246 15.076C12.2418 12.9116 12.8893 11.1292 14.3786 9.53782C18.2636 5.46378 23.1199 3.23579 28.7532 2.66288C34.9044 2.02631 40.8615 2.79019 46.3652 5.59109C48.502 6.6096 50.4445 8.13737 52.0633 9.8561C55.1713 13.1026 55.3008 18.0678 52.8403 22.6511Z" fill="white"/>
<path d="M47.2787 9.4853C45.0348 8.09495 42.5269 6.95739 39.953 6.32541C33.8813 4.87186 27.8095 5.31424 22.0678 7.84216C20.8138 8.41094 19.4939 8.97972 18.3059 9.67489C15.798 11.1916 15.3361 12.6452 16.326 15.2995C17.778 19.1546 16.326 22.504 12.4322 24.2104C11.1122 24.7792 9.7263 25.032 8.40636 25.6639C7.61439 26.0431 6.49244 26.6751 6.42644 27.3071C6.36045 28.0655 7.21841 28.887 7.81238 29.5822C8.20837 30.0246 8.80234 30.2774 9.39631 30.5302C13.6201 32.4261 18.1739 32.7421 22.3977 32.9949C28.4695 33.0581 34.0132 32.5525 39.425 30.5302C44.3088 28.6974 48.2026 25.7903 50.3805 21.1769C52.4264 16.8794 51.3045 12.0132 47.2787 9.4853ZM47.0147 18.7122C46.5527 19.2178 44.3088 19.0282 43.6488 18.5226C42.9229 17.9538 42.1309 17.385 41.3389 16.8794C40.811 16.5635 40.283 16.3107 39.623 16.2475C38.633 16.1843 38.3031 16.6898 37.7751 17.1954C37.0491 17.6378 36.5211 18.2698 35.7952 18.7754C35.3992 19.0282 34.8712 19.2178 34.4092 19.1546C34.0792 19.1546 33.5513 18.7122 33.5513 18.3962C33.4853 17.701 33.8813 17.6378 34.2112 17.4482C35.0692 17.0058 35.9272 16.753 36.7851 16.3739C38.0391 15.8051 38.567 14.8571 38.4351 13.5932C38.3691 12.6452 38.1051 11.7604 37.9731 10.8125C37.9071 10.4965 38.1711 9.5485 38.3691 9.4221C38.765 9.16931 38.633 9.16931 39.161 9.10611C39.293 9.10611 40.085 9.3589 40.085 10.1805C40.085 10.7493 39.821 11.3812 39.755 11.95C39.557 14.3515 40.613 15.9947 42.9229 16.8162C43.6488 17.069 45.2328 17.069 46.0247 17.1322C46.8167 17.1954 47.1467 17.6378 47.2127 17.8906C47.2787 18.1434 47.3447 18.333 47.0147 18.7122Z" fill="white"/>
</svg>
