<svg width="50" height="53" viewBox="0 0 50 53" fill="none" xmlns="http://www.w3.org/2000/svg">
<path d="M27.3717 0L2 24L49 10.5763L27.3717 0ZM29.4513 7.11864C30.6991 7.11864 31.531 7.9322 31.531 9.15254C31.531 10.3729 30.6991 11.1864 29.4513 11.1864C28.2035 11.1864 27.3717 10.3729 27.3717 9.15254C27.3717 8.13559 28.2035 7.11864 29.4513 7.11864Z" fill="white"/>
<path d="M50 12L0 26.6429V36.0561C2.08333 36.0561 3.75 37.7296 3.75 39.8214C3.75 41.9133 2.08333 43.5867 0 43.5867V53L50 36.2653V12ZM30.8333 21.4133C32.9167 21.4133 34.5833 23.0867 34.5833 25.1786C34.5833 27.2704 32.9167 28.9439 30.8333 28.9439C28.75 28.9439 27.0833 27.2704 27.0833 25.1786C27.0833 23.0867 28.75 21.4133 30.8333 21.4133ZM43.3333 27.6888C44.7917 27.6888 45.8333 28.9439 46.0417 30.4082C46.0417 31.8724 44.7917 33.1276 43.3333 33.1276C41.875 33.1276 40.8333 31.8724 40.625 30.4082C40.625 28.9439 41.875 27.6888 43.3333 27.6888ZM10.8333 29.7806C12.9167 29.7806 14.5833 31.4541 14.5833 33.5459C14.5833 35.6378 12.9167 37.3112 10.8333 37.3112C8.75 37.3112 7.08333 35.6378 7.08333 33.5459C7.29167 31.4541 8.95833 29.7806 10.8333 29.7806ZM23.3333 33.9643C24.7917 33.9643 26.0417 35.2194 26.0417 36.6837C26.0417 38.148 24.7917 39.4031 23.3333 39.4031C21.875 39.4031 20.625 38.148 20.625 36.6837C20.625 35.2194 22.0833 33.9643 23.3333 33.9643Z" fill="white"/>
</svg>
