<svg width="328" height="251" viewBox="0 0 328 251" fill="none" xmlns="http://www.w3.org/2000/svg">
    <path d="M132.638 218.159L190.978 221.797V209.502L132.638 209.371V218.159Z" fill="#DBDBDB" />
    <path
        d="M18.2196 209.395C18.2196 209.395 22.7145 233.986 31.7044 233.974H128.025C137.038 233.974 141.498 209.383 141.498 209.383L18.2196 209.395Z"
        fill="#FFC727" />
    <g opacity="0.5">
        <path opacity="0.5"
            d="M309.416 29.8348C308.227 39.5382 301.187 47.0892 293.053 51.9052C288.297 54.7235 282.232 55.6629 277.927 59.1233C273.872 62.3815 272.469 67.8754 273.052 72.8697C274.336 83.9406 284.42 91.9673 291.983 99.114C303.637 110.125 318.275 127.308 308.845 144.301C304.433 152.233 295.764 157.477 287.583 160.735C278.415 164.374 268.557 165.86 258.735 166.336C247.378 166.871 234.69 165.254 227.437 176.016C220.944 185.612 221.562 192.664 225.058 203.009C225.058 203.009 222.157 203.734 221.931 203.437C218.601 199.085 214.285 190.357 212.299 185.267C207.863 174.874 206.71 163.922 215.735 154.861C221.015 149.557 228.091 146.62 234.131 142.327C241.968 136.786 245.844 129.092 242.872 119.484C239.804 109.555 231.955 102.265 227.116 93.2515C224.867 89.2988 223.644 84.8464 223.557 80.2999C223.47 75.7534 224.521 71.2574 226.616 67.2213C230.397 59.7333 236.304 53.5282 243.597 49.3842C251.862 44.6277 260.792 43.7834 270.139 43.5456C280.698 43.2483 293.398 42.6418 299.867 32.9147C306.229 23.4016 303.791 11.2723 301.139 0.974399C301.032 0.617657 301.591 0.427386 301.746 0.760345C305.932 9.82158 310.676 19.5368 309.416 29.8348Z"
            fill="white" />
    </g>
    <path d="M320.534 187.182H278.688V190.749H320.534V187.182Z" fill="#DBDBDB" />
    <path d="M290.425 194.542H327.645V183.376H290.425V194.542Z" fill="#FFC727" />
    <path
        d="M163.247 175.195C163.247 175.195 167.266 233.974 186.031 233.974H285.348C304.112 233.974 308.132 175.195 308.132 175.195H163.247Z"
        fill="#263238" />
    <path d="M195.294 187.301H153.448V190.642H195.294V187.301Z" fill="#DBDBDB" />
    <path d="M183.557 194.554H146.337V183.388H183.557V194.554Z" fill="#FFC727" />
    <path
        d="M159.632 250.337H162.807L169.609 236.804H304.362L311.176 250.337H314.351L306.122 233.974H167.873L159.632 250.337Z"
        fill="#455A64" />
    <path
        d="M183.724 250.337H186.721L191.37 236.804H282.601L287.262 250.337H290.259L285.597 236.804L284.622 233.974H189.36L188.385 236.804L183.724 250.337Z"
        fill="#455A64" />
    <path
        d="M0.0733185 250.337H3.26021L10.0621 236.804H144.803L151.617 250.337H154.792L146.563 233.974H8.31405L0.0733185 250.337Z"
        fill="#455A64" />
    <path
        d="M24.1653 250.337H27.1619L31.8114 236.804H123.054L127.704 250.337H130.7L126.051 236.804L125.064 233.974H29.8018L28.8267 236.804L24.1653 250.337Z"
        fill="#455A64" />
</svg>