<svg width="86" height="44" viewBox="0 0 86 44" fill="none" xmlns="http://www.w3.org/2000/svg">
<path fill-rule="evenodd" clip-rule="evenodd" d="M75.6003 18.9496C74.1098 19.1326 72.6562 18.076 72.4609 16.4848C72.277 14.9873 73.3271 13.5283 74.9107 13.3338C76.4012 13.1508 77.8548 14.2074 78.0502 15.7986C78.2455 17.3897 77.1839 18.7551 75.6003 18.9496ZM70.6127 29.1576C70.4494 29.3677 70.1814 29.4956 69.902 29.5299C69.6225 29.5642 69.4247 29.4935 69.1222 29.3406C62.8664 24.5984 61.2695 18.524 64.5512 12.1357L64.6329 12.0306C64.7732 11.6334 65.0297 11.4119 65.4955 11.3547C66.0544 11.286 66.5776 11.6968 66.6466 12.2584C66.6925 12.6328 66.5292 12.8429 66.3774 13.1465C64.392 17.0005 63.4864 22.7171 70.3587 27.8587C70.8589 28.0823 70.9394 28.7375 70.6127 29.1576ZM86.0427 19.2825C85.1124 18.6367 84.6478 17.9337 84.5674 17.2785C84.4869 16.6233 84.7561 15.7352 85.3979 14.8014C84.049 13.8269 80.2115 11.0679 74.9066 8.67903C69.6016 6.2902 62.8291 4.27156 55.3078 4.62503C54.5625 4.71653 53.8058 4.71444 53.0605 4.80594C49.9326 2.43482 45.8502 -0.00911619 42.7301 -0.00604315C40.8736 3.35712 40.9159 6.0121 41.0883 7.41603C40.634 7.56682 40.1797 7.7176 39.7369 7.96198C25.7001 13.0107 17.1993 21.56 17.1993 21.56C14.4325 19.0495 8.02603 13.8507 0.646224 13.0467C1.32791 16.2883 3.08027 19.7783 4.32211 22.191C5.19255 23.8893 5.56395 24.6037 5.67887 25.5397C5.77081 26.2885 5.64074 27.5395 5.207 29.3979C4.58574 32.0393 3.72975 35.8497 3.84102 39.0662C10.8071 36.5008 15.8115 30.281 17.9118 27.3629C19.447 28.3145 21.2732 29.3253 23.3904 30.3955C22.5508 31.2586 21.0578 32.962 21.65 33.9344C23.3334 36.8629 30.6122 35.3041 33.5128 34.2829C35.2815 34.8258 37.2136 35.1586 39.1456 35.4914C39.9253 35.6807 40.6004 35.7878 41.3686 35.8835C40.6887 38.8172 40.3457 42.1846 41.2288 43.2162C41.3334 43.2984 41.4496 43.4741 41.9154 43.4169C43.0332 43.2797 49.4864 41.1572 55.7925 36.2976C72.8629 34.3917 82.0412 24.4291 82.0412 24.4291C84.0471 22.2827 85.3422 20.5086 86.0427 19.2825Z" fill="white"/>
</svg>
