<svg width="56" height="56" viewBox="0 0 56 56" fill="none" xmlns="http://www.w3.org/2000/svg">
<path fill-rule="evenodd" clip-rule="evenodd" d="M51.3961 45.2863C50.5573 46.1269 49.2878 46.4093 48.1648 46.0012C47.5118 45.7653 46.7838 45.9279 46.2935 46.4176C45.8027 46.9073 45.6394 47.6365 45.8747 48.2889C46.281 49.4124 45.9992 50.6826 45.1604 51.5232C44.5772 52.1058 43.8027 52.4263 42.9788 52.4263H42.9776C42.1537 52.4263 41.3775 52.1052 40.796 51.522C39.6021 50.3281 39.5926 48.3901 40.7692 47.1855C40.7841 47.1718 40.7996 47.157 40.8097 47.1474C41.1576 46.815 41.3566 46.3569 41.3626 45.8755C41.3673 45.3947 41.1785 44.9318 40.8389 44.5923L37.7917 41.545L41.4186 37.9181L44.4646 40.9654C44.8042 41.3055 45.2444 41.495 45.7478 41.489C46.2286 41.4837 46.6855 41.2853 47.0186 40.9386C47.0269 40.9296 47.0406 40.9147 47.0549 40.9004C47.6346 40.3315 48.4013 40.0187 49.2145 40.0187C50.0384 40.0187 50.8123 40.3398 51.3949 40.9237C51.9781 41.5063 52.2992 42.2808 52.2992 43.1059C52.3004 43.9292 51.9793 44.7037 51.3961 45.2863ZM10.6561 10.8439C14.9711 6.52955 20.2267 3.74146 24.0461 3.74146C25.4097 3.74146 26.4594 4.09891 27.1654 4.80189L27.1761 4.81201C28.3944 6.03746 28.5701 8.39125 27.6569 11.2735C26.6018 14.6013 24.285 18.1698 21.1341 21.3207C16.8173 25.6357 11.5628 28.4232 7.74529 28.4232C6.70571 28.4232 5.85082 28.2135 5.18895 27.8036L4.55686 27.1715L4.5092 27.2192C2.21499 24.6241 4.12138 17.3787 10.6561 10.8439ZM53.9238 38.3953C52.6662 37.1365 50.994 36.4437 49.2151 36.4437C48.0284 36.4437 46.8881 36.7523 45.8872 37.3313L43.6181 35.0627C44.999 32.0495 46.7374 25.4879 43.9576 18.7655C42.9187 16.2485 41.3292 13.9108 39.2322 11.8144L29.711 2.29261C29.7062 2.28784 29.7027 2.28308 29.6985 2.27891C29.6949 2.27533 29.6901 2.27235 29.6866 2.26878L29.574 2.15559L29.5668 2.16214C28.1936 0.859248 26.2926 0.166992 24.0455 0.166992C19.2551 0.166992 13.1564 3.28929 8.12835 8.31678C0.388439 16.0573 -2.26322 25.5314 2.09167 29.8851C2.33235 30.1258 2.59746 30.3403 2.8721 30.541L11.6897 39.3592C16.6797 44.3504 22.1158 45.5651 26.2241 45.5651C26.7627 45.5651 27.2774 45.5443 27.7659 45.5079C30.669 45.2952 33.2962 44.4868 34.9381 43.7445L37.2072 46.0143C35.7423 48.5599 36.095 51.8752 38.2683 54.0491C39.5259 55.3073 41.1993 56.0002 42.9782 56.0002H42.9794C44.7583 56.0002 46.4306 55.3079 47.6894 54.0497C48.8529 52.8844 49.5195 51.3409 49.6184 49.7449C51.215 49.6466 52.7598 48.9787 53.925 47.8135C55.1827 46.5558 55.8749 44.883 55.8737 43.1035C55.8737 41.3246 55.1803 39.6518 53.9238 38.3953Z" fill="white"/>
<path fill-rule="evenodd" clip-rule="evenodd" d="M18.4556 13.5444C19.1815 14.2703 19.1815 15.4481 18.4556 16.1739L15.1739 19.4556C14.4481 20.1815 13.2703 20.1815 12.5444 19.4556C11.8185 18.7297 11.8185 17.5519 12.5444 16.8261L15.8261 13.5444C16.5519 12.8185 17.7297 12.8185 18.4556 13.5444Z" fill="white"/>
</svg>
