<svg width="145" height="64" viewBox="0 0 145 64" fill="none" xmlns="http://www.w3.org/2000/svg">
<path d="M20.54 15.8139C20.2994 15.3954 19.7006 15.3954 19.46 15.8139L17.7656 18.7616C17.6467 18.9684 17.4413 19.1095 17.2072 19.1452L14.0317 19.6293C13.4984 19.7106 13.3113 20.3904 13.7266 20.7377L16.0922 22.7161C16.3112 22.8993 16.4141 23.1881 16.361 23.4701L15.7422 26.7504C15.6443 27.269 16.1836 27.6719 16.6463 27.426L19.6364 25.8367C19.864 25.7157 20.136 25.7157 20.3636 25.8367L23.3537 27.426C23.8164 27.6719 24.3557 27.269 24.2578 26.7504L23.639 23.4701C23.5859 23.1881 23.6888 22.8993 23.9078 22.7161L26.2734 20.7377C26.6887 20.3904 26.5016 19.7106 25.9683 19.6293L22.7929 19.1452C22.5587 19.1095 22.3533 18.9684 22.2344 18.7616L20.54 15.8139Z" fill="#F9CF66"/>
<rect x="16.5" y="30.5" width="7" height="18" rx="1" fill="#F9CF65"/>
<rect x="7.5" y="35.5" width="7" height="13" rx="1" fill="#F9CF65"/>
<rect x="25.5" y="40.5" width="7" height="8" rx="1" fill="#F9CF65"/>
<path d="M46.8919 44.5V18.308H56.5081C58.6034 18.308 60.3246 18.6697 61.6716 19.3931C63.0436 20.0916 64.0663 21.052 64.7398 22.2742C65.4134 23.4716 65.7501 24.8061 65.7501 26.2779C65.7501 27.8743 65.326 29.3336 64.4779 30.6557C63.6548 31.9777 62.3576 32.9381 60.5866 33.5368L66.012 44.5H60.5117L55.6475 34.1729H51.6813V44.5H46.8919ZM51.6813 30.6557H56.2088C57.8052 30.6557 58.9776 30.269 59.726 29.4957C60.4743 28.7225 60.8485 27.6997 60.8485 26.4275C60.8485 25.1803 60.4743 24.1825 59.726 23.4342C59.0026 22.6858 57.8177 22.3117 56.1713 22.3117H51.6813V30.6557ZM66.0886 44.5L75.6674 18.308H81.0555L90.6342 44.5H85.5455L83.4501 38.4384H73.2353L71.1025 44.5H66.0886ZM74.5449 34.6967H82.1405L78.324 23.8083L74.5449 34.6967ZM91.5761 44.5V18.308H96.3655L108.676 36.7547V18.308H113.465V44.5H108.676L96.3655 26.0908V44.5H91.5761ZM116.111 44.5V18.308H120.9V28.8971L130.591 18.308H136.503L126.849 28.71L136.765 44.5H130.89L123.407 32.3769L120.9 35.1083V44.5H116.111Z" fill="#F8F8F8"/>
</svg>
