<svg width="50" height="57" viewBox="0 0 50 57" fill="none" xmlns="http://www.w3.org/2000/svg">
<g clip-path="url(#clip0_41_156)">
<path fill-rule="evenodd" clip-rule="evenodd" d="M27.2403 36.6948C27.1035 37.3081 26.5564 37.7415 25.9242 37.7415C25.6728 37.7415 25.4325 37.6277 25.2754 37.433C25.1165 37.2402 25.0573 36.9831 25.1091 36.7388C25.817 33.5122 28.3919 31.1101 31.4991 31.1101C31.8614 31.1101 32.2126 31.1652 32.5601 31.2295C29.9538 31.7033 27.8762 33.874 27.2403 36.6948ZM31.5009 29C26.8059 29 23 33.2532 23 38.5C23 43.7468 26.8059 48 31.5009 48C36.1922 48 40 43.7486 40 38.5C40 33.2532 36.1922 29 31.5009 29Z" fill="white"/>
<path fill-rule="evenodd" clip-rule="evenodd" d="M15.4726 28.389C17.4145 25.4932 18.4394 22.119 18.4394 18.6317C18.4394 15.0351 19.7968 11.7647 22 9.29342C21.8502 8.86331 21.6602 8.44988 21.5396 8.0105L21.483 7.80842C19.8954 2.11126 14.0586 -1.20173 8.44089 0.405632C2.82506 2.01671 -0.441398 7.94376 1.14616 13.6391L1.15164 13.6539C2.25873 17.6343 2.15643 21.8205 0.866648 25.7434C-0.167366 28.8933 -0.31717 32.3787 0.640115 35.8178C2.43594 42.2713 7.64072 46.7986 13.7114 48C12.6226 45.4916 12.007 42.7292 12.007 39.8167C12.007 35.7213 13.2054 31.7687 15.4726 28.389Z" fill="white"/>
<path fill-rule="evenodd" clip-rule="evenodd" d="M32.3069 52.7426C25.2277 52.7426 19.4693 46.9518 19.4693 39.8352C19.4693 37.2444 20.2319 34.7444 21.6761 32.6093C24.4761 28.4778 25.9535 23.6574 25.9535 18.6574C25.9535 15.0981 28.9082 12.2037 32.4469 12.2037C35.9874 12.2037 38.9422 15.0981 38.9422 18.6574V18.8648C38.9422 23.7907 40.3127 28.563 43.0537 32.6704C44.4703 34.7907 45.1777 37.2685 45.1777 39.8352C45.1832 46.9518 39.3843 52.7426 32.3069 52.7426ZM46.2995 30.2981C44.0448 26.9185 42.6301 22.9333 42.6301 18.8648V18.6574C42.6301 12.7444 38.3822 7.94629 32.4985 7.94629C26.6148 7.94629 22.3669 12.7444 22.3669 18.6574V18.6741C22.3669 22.8037 20.8122 26.8 18.5003 30.2148C16.6435 32.9555 15.3945 36.2704 15.3945 39.8352C15.3945 49.3148 22.9582 57 32.3861 57C41.8158 57 49.3206 49.3167 49.3206 39.8352C49.3224 36.3037 48.1177 33.0241 46.2995 30.2981Z" fill="white"/>
</g>
<defs>
<clipPath id="clip0_41_156">
<rect width="50" height="57" fill="white"/>
</clipPath>
</defs>
</svg>
