<svg width="65" height="65" viewBox="0 0 65 65" fill="none" xmlns="http://www.w3.org/2000/svg">
<g clip-path="url(#clip0_23_183)">
<path d="M32.5002 -0.235352C14.4603 -0.235352 -0.235352 14.4603 -0.235352 32.5002C-0.235352 50.54 14.4603 65.2357 32.5002 65.2357C50.54 65.2357 65.2357 50.54 65.2357 32.5002C65.2357 14.4603 50.54 -0.235352 32.5002 -0.235352ZM61.4675 32.5002C61.4675 39.8009 58.7356 46.4893 54.261 51.5762L13.4241 10.7393C18.511 6.26465 25.1994 3.53276 32.5002 3.53276C48.4675 3.53276 61.4675 16.5328 61.4675 32.5002ZM3.53276 32.5002C3.53276 25.1994 6.26464 18.511 10.7393 13.4241L51.5762 54.261C46.4893 58.7357 39.8009 61.4675 32.5002 61.4675C16.5328 61.5146 3.53276 48.5146 3.53276 32.5002Z" fill="white"/>
<path d="M12.5764 39.3769C12.4822 40.5544 13.0474 41.4023 13.9423 41.9675C15.5438 43.0037 17.0981 44.0399 18.7467 44.7465C24.3047 47.0544 30.1923 47.4784 36.1271 46.4421C36.9749 46.3008 37.8228 46.1124 38.6706 45.8769L33.772 40.9784C33.301 41.0726 32.7829 41.1668 32.3119 41.261C31.2286 41.4494 30.051 41.6378 29.109 41.6378C25.1996 41.732 21.5728 40.9784 18.2757 39.4711C17.0981 39.0001 16.0619 38.1523 15.0257 37.3515C14.6489 37.0689 14.4605 36.5979 14.272 36.174C13.9894 35.703 14.1308 35.232 14.6489 35.0907C15.4025 34.7139 16.2032 34.2899 17.0039 33.9131C17.946 33.4892 18.888 33.1124 19.7829 32.5943C21.2902 31.6994 21.8554 30.5218 21.667 28.8733L19.6887 26.895C19.6887 26.9421 19.6887 26.9421 19.6887 26.9892C19.8771 27.6015 19.9713 28.2139 20.0655 28.8262C20.2539 29.674 20.0184 30.4276 19.3119 30.8986C18.7467 31.2755 18.1344 31.6523 17.475 31.9349C16.3916 32.4059 15.2612 32.7827 14.2249 33.2537C13.0003 33.7718 12.4822 34.761 12.5293 36.0798C12.5293 37.2102 12.6235 38.2936 12.5764 39.3769Z" fill="white"/>
<path d="M18.6048 34.3371C18.0867 34.6198 17.3331 35.0437 17.286 35.4676C17.2389 35.9857 17.8041 36.5509 18.228 37.069C18.5106 37.3987 18.8874 37.54 19.3113 37.7284C22.1374 39.0473 25.199 39.2828 28.0251 39.4712C29.4381 39.4712 30.8041 39.4712 32.1229 39.3299L23.8331 31.04C23.3621 31.9821 22.5142 32.7828 21.3367 33.3009C20.4418 33.7248 19.4997 33.9132 18.6048 34.3371Z" fill="white"/>
<path d="M32.5 0C14.5543 0 0 14.6014 0 32.5C0 50.3986 14.6014 65 32.5 65C50.3986 65 65 50.3986 65 32.5C65 14.6014 50.4457 0 32.5 0ZM51.7645 54.4493C46.442 59.1594 39.6123 61.7029 32.5 61.7029C16.3913 61.7029 3.2971 48.6087 3.2971 32.5C3.2971 25.4348 5.88768 18.6051 10.5507 13.2355L10.7391 13.0471L51.9529 54.2609L51.7645 54.4493ZM38.7174 25.9058C38.6703 25.2464 38.4819 24.6341 38.3877 23.9746C38.3406 23.7391 38.529 23.0797 38.6703 22.9855C38.9529 22.7971 38.8587 22.7971 39.1884 22.75C39.2826 22.75 39.8007 22.9384 39.8007 23.5036C39.8007 23.8804 39.6123 24.3514 39.5652 24.7283C39.4239 26.4239 40.1304 27.5543 41.6848 28.1196C42.1558 28.308 43.2391 28.308 43.7572 28.3551C44.2754 28.4022 44.5109 28.7319 44.558 28.8732C44.6051 29.0616 44.6522 29.2029 44.4167 29.4384C44.087 29.8152 42.6268 29.6739 42.1558 29.2971C41.6848 28.9203 41.1196 28.4964 40.6014 28.1667C40.2246 27.9312 39.8949 27.7899 39.471 27.7428C38.8116 27.6957 38.5761 28.0725 38.2464 28.4022C37.7754 28.7319 37.3985 29.1558 36.9275 29.4855C36.6449 29.6739 36.3152 29.8152 35.9855 29.7681C35.75 29.7681 35.4203 29.4384 35.4203 29.25C35.3732 28.779 35.6558 28.7319 35.8442 28.5906C36.4094 28.2609 36.9746 28.1196 37.587 27.837C38.4819 27.4601 38.8116 26.8007 38.7174 25.9058ZM39.8949 37.5399C42.9565 36.2681 45.3587 34.2428 46.7246 31.1812C48.0906 28.1667 47.337 24.7754 44.6522 22.9855C43.1449 21.9964 41.4493 21.1957 39.7536 20.7717C35.7029 19.7355 31.6051 20.0652 27.7899 21.8551C26.9891 22.2319 26.1884 22.6087 25.4348 23.0326L23.9275 21.5254C26.2826 19.6413 29.0145 18.558 32.1232 18.2754C36.3152 17.8514 40.413 18.3696 44.134 20.3007C45.5942 21.0072 46.913 22.0906 48.0435 23.2681C50.163 25.529 50.2572 28.9674 48.5616 32.1703C46.8659 35.3732 44.3225 37.4928 41.2609 38.9058L39.8949 37.5399ZM54.4493 51.7645L54.2609 51.9529L45.2174 42.9094C46.3949 42.1087 47.4783 41.1667 48.5145 40.0833C50.3515 38.058 51.4819 35.75 51.3406 32.971C51.2935 32.2645 51.3406 31.558 51.3406 30.8514C51.3406 29.8623 51.2935 28.9674 51.3406 27.9783C51.3877 24.8696 50.0688 22.3261 47.6196 20.5362C42.2029 16.5797 36.1739 15.6848 29.721 17.0036C27.0833 17.5688 24.6812 18.6522 22.6558 20.3478L13.0471 10.7391L13.2355 10.5507C18.558 5.84058 25.3877 3.2971 32.5 3.2971C48.6087 3.2971 61.7029 16.3913 61.7029 32.5C61.7029 39.6123 59.1123 46.442 54.4493 51.7645Z" fill="white"/>
</g>
<defs>
<clipPath id="clip0_23_183">
<rect width="65" height="65" fill="white"/>
</clipPath>
</defs>
</svg>
